<svg viewBox="0 0 80 80" width="80" height="80" fill="none" xmlns="http://www.w3.org/2000/svg"><g transform="translate(0.0000, 0.0000) scale(1.000000)">
<path d="M79.8262 0H0V80H79.8262V0Z" fill="white"/>
<path d="M47.942 46.0706H58.2786L58.2381 46.9002C57.874 51.6941 56.0737 55.5172 52.8576 58.2883C49.6815 61.0394 45.4338 62.4352 40.2349 62.4352C34.5506 62.4352 29.9991 60.4932 26.7018 56.6296C23.4653 52.8065 21.8066 47.5268 21.8066 40.9325V38.3031C21.8066 34.0954 22.5758 30.3331 24.0524 27.1166C25.5694 23.8596 27.7543 21.3106 30.5658 19.5715C33.3773 17.8316 36.6547 16.9417 40.3561 16.9417C45.4738 16.9417 49.6611 18.3374 52.7968 21.109C55.9524 23.8596 57.7932 27.784 58.2786 32.7405L58.3594 33.5696H48.0024L47.962 32.8817C47.7599 30.3131 47.0516 28.4519 45.8783 27.3595C44.7051 26.247 42.8439 25.7008 40.3561 25.7008C37.6658 25.7008 35.7039 26.6112 34.3885 28.5327C33.0132 30.4947 32.3053 33.6504 32.2649 37.8985V41.135C32.2649 45.5852 32.9323 48.8626 34.2473 50.865C35.5014 52.7865 37.4633 53.7169 40.2349 53.7169C42.7635 53.7169 44.6447 53.1707 45.8384 52.0582C47.0112 50.9658 47.7195 49.1859 47.9016 46.7785L47.942 46.0702V46.0706Z" fill="black"/>
</g></svg>
